<?xml version="1.0" encoding="UTF-8" standalone="no"?>
<!-- Created with Inkscape (http://www.inkscape.org/) -->

<svg
   width="100mm"
   height="100mm"
   viewBox="0 0 100 100"
   version="1.1"
   id="svg5"
   inkscape:version="1.2.1 (9c6d41e410, 2022-07-14)"
   sodipodi:docname="template.svg"
   inkscape:export-filename="Desktop\ROBOTICS\2024\Scouting2024\svg\target-good.svg"
   inkscape:export-xdpi="100"
   inkscape:export-ydpi="100"
   xml:space="preserve"
   xmlns:inkscape="http://www.inkscape.org/namespaces/inkscape"
   xmlns:sodipodi="http://sodipodi.sourceforge.net/DTD/sodipodi-0.dtd"
   xmlns:xlink="http://www.w3.org/1999/xlink"
   xmlns="http://www.w3.org/2000/svg"
   xmlns:svg="http://www.w3.org/2000/svg"><sodipodi:namedview
     id="namedview7"
     pagecolor="#ffffff"
     bordercolor="#999999"
     borderopacity="1"
     inkscape:showpageshadow="0"
     inkscape:pageopacity="0"
     inkscape:pagecheckerboard="0"
     inkscape:deskcolor="#d1d1d1"
     inkscape:document-units="mm"
     showgrid="false"
     inkscape:zoom="2.0505179"
     inkscape:cx="280.41696"
     inkscape:cy="304.31337"
     inkscape:window-width="1366"
     inkscape:window-height="705"
     inkscape:window-x="-8"
     inkscape:window-y="-8"
     inkscape:window-maximized="1"
     inkscape:current-layer="g3482" /><defs
     id="defs2"><inkscape:path-effect
       effect="fillet_chamfer"
       id="path-effect3233"
       is_visible="true"
       lpeversion="1"
       nodesatellites_param="F,0,0,1,0,9.2604167,0,1 @ F,0,0,1,0,9.2604167,0,1 @ F,0,0,1,0,9.2604167,0,1 @ F,0,0,1,0,9.2604167,0,1"
       unit="px"
       method="auto"
       mode="F"
       radius="35"
       chamfer_steps="1"
       flexible="false"
       use_knot_distance="true"
       apply_no_radius="true"
       apply_with_radius="true"
       only_selected="false"
       hide_knots="false" /><color-profile
       name="Agfa-:-Swop-Standard"
       xlink:href="../../../../../../Windows/system32/spool/drivers/color/RSWOP.icm"
       id="color-profile1621" /></defs><g
     inkscape:label="Layer 1"
     inkscape:groupmode="layer"
     id="layer1"><g
       id="g3482"
       transform="matrix(1.1771536,0,0,1.1771536,-10.028117,-12.632424)"><g
         id="g5197"><g
           id="g3241"
           transform="translate(5.4193625,0.77419465)"><path
             style="fill:none;stroke:#000000;stroke-width:10;stroke-linecap:butt;stroke-linejoin:miter;stroke-dasharray:none;stroke-opacity:1"
             d="M 25.290358,81.290437 59.612987,52.129105"
             id="path3235" /><path
             style="fill:none;stroke:#000000;stroke-width:5;stroke-linecap:butt;stroke-linejoin:miter;stroke-dasharray:none;stroke-opacity:1"
             d="m 43.87103,65.806544 4.387101,13.161309 16.258088,0.516131 4.903234,-8.000013"
             id="path3237" /></g><circle
           style="fill:#000000;fill-opacity:1;stroke:none;stroke-width:7.64214;stroke-linecap:square;stroke-linejoin:round;stroke-dasharray:none;paint-order:stroke markers fill"
           id="path3297-2"
           cx="51.393757"
           cy="51.768322"
           r="5.5220795" /><circle
           style="fill:#000000;fill-opacity:1;stroke:none;stroke-width:7.64214;stroke-linecap:square;stroke-linejoin:round;stroke-dasharray:none;paint-order:stroke markers fill"
           id="path3297-2-5"
           cx="32.634022"
           cy="67.511345"
           r="5.5220795" /></g><g
         id="g8340"
         style="fill:#41d200;fill-opacity:1;stroke-width:0.99987;stroke-dasharray:none"><path
           style="fill:#41d200;fill-opacity:1;stroke:none;stroke-width:1.177;stroke-linecap:butt;stroke-linejoin:miter;stroke-dasharray:none;stroke-opacity:1"
           d="M 92.127473,84.842726 54.681785,14.637298 A 4.9388455,4.9388455 179.99802 0 0 45.966158,14.6376 L 8.5193404,84.856854 a 5.5555068,5.5555068 59.03067 0 0 4.9028856,8.169676 l 27.641046,-0.0043 46.16188,-0.0072 a 5.5570392,5.5570392 120.95839 0 0 4.902321,-8.172268 z"
           id="path292-2-2"
           sodipodi:nodetypes="ccccc"
           inkscape:path-effect="#path-effect3233"
           inkscape:original-d="M 96.485569,93.013547 50.323689,6.4664773 4.1618099,93.027977 50.323689,93.020762 Z"
           transform="matrix(0.84950682,0,0,0.84950682,8.5189537,10.73133)" /></g><path
         fill="#000000"
         d="m 49.493843,67.809619 7.284149,9.527128 -16.817286,4.702799 z M 49.521567,64.182877 38.629242,49.935813 26.702119,67.739311 37.594445,81.986083 49.15053,64.739212 Z m 16.455357,0.947317 3.486759,-5.205671 -3.912233,1.093194 v 3.255042 z m -11.645836,-0.206446 -1.063935,-0.476191 -1.877954,0.524686 -0.725481,1.083455 7.824465,10.238882 3.236838,-4.832801 -2.051989,-4.175678 z m 4.608876,-8.601622 h 6.617858 v 2.672121 l 4.54311,-1.271789 -10.893441,-14.256607 -18.964081,5.302759 10.8986,14.255535 7.796637,-2.186192 v -4.515827 z m 4.598757,8.380568 v -6.43734 h -2.580868 v 4.819362 l -1.369306,-0.49664 -3.441431,1.000779 5.048009,2.233618 10.585743,21.549044 2.477158,-0.692375 z"
         id="path1553"
         style="stroke-width:0.0992634" /></g></g></svg>
